<?xml version="1.0" encoding="UTF-8" standalone="no"?>
<!-- Created with Inkscape (http://www.inkscape.org/) -->

<svg
   xmlns:dc="http://purl.org/dc/elements/1.1/"
   xmlns:cc="http://creativecommons.org/ns#"
   xmlns:rdf="http://www.w3.org/1999/02/22-rdf-syntax-ns#"
   xmlns:svg="http://www.w3.org/2000/svg"
   xmlns="http://www.w3.org/2000/svg"
   xmlns:sodipodi="http://sodipodi.sourceforge.net/DTD/sodipodi-0.dtd"
   xmlns:inkscape="http://www.inkscape.org/namespaces/inkscape"
   id="svg2"
   version="1.1"
   inkscape:version="0.91 r13725"
   xml:space="preserve"
   width="7.9858375"
   height="8.0328379"
   viewBox="0 0 7.9858375 8.0328379"
   sodipodi:docname="sss-share.svg"><metadata
     id="metadata8"><rdf:RDF><cc:Work
         rdf:about=""><dc:format>image/svg+xml</dc:format><dc:type
           rdf:resource="http://purl.org/dc/dcmitype/StillImage" /><dc:title></dc:title></cc:Work></rdf:RDF></metadata><defs
     id="defs6"><clipPath
       clipPathUnits="userSpaceOnUse"
       id="clipPath16"><path
         d="m 0,6.426 6.389,0 L 6.389,0 0,0 0,6.426 Z"
         id="path18"
         inkscape:connector-curvature="0" /></clipPath></defs><sodipodi:namedview
     pagecolor="#ffffff"
     bordercolor="#666666"
     borderopacity="1"
     objecttolerance="10"
     gridtolerance="10"
     guidetolerance="10"
     inkscape:pageopacity="0"
     inkscape:pageshadow="2"
     inkscape:window-width="1920"
     inkscape:window-height="1017"
     id="namedview4"
     showgrid="false"
     inkscape:zoom="29.379405"
     inkscape:cx="3.9929187"
     inkscape:cy="4.0164189"
     inkscape:window-x="-8"
     inkscape:window-y="-8"
     inkscape:window-maximized="1"
     inkscape:current-layer="g10" /><g
     id="g10"
     inkscape:groupmode="layer"
     inkscape:label="Vector Smart Object3"
     transform="matrix(1.25,0,0,-1.25,0,8.0328375)"><g
       id="g12"
       style="fill:#ffffff;fill-opacity:1"><g
         id="g14"
         clip-path="url(#clipPath16)"
         style="fill:#ffffff;fill-opacity:1"><g
           id="g20"
           transform="translate(5.6113,4.0835)"
           style="fill:#ffffff;fill-opacity:1"><path
             d="m 0,0 0,-1.354 c 0.097,0.036 0.183,0.093 0.254,0.164 0.131,0.131 0.212,0.313 0.212,0.513 0,0.2 -0.081,0.382 -0.212,0.512 L 0.247,-0.158 C 0.178,-0.089 0.094,-0.036 0,0 m -2.178,0.365 0,-2.085 0,-0.006 0,-0.008 0,-0.004 0,-0.112 1.66,-1.106 0,4.557 -1.66,-1.106 0,-0.117 0,-0.006 0,-0.007 z m -0.31,-1.832 0,1.58 -1.815,0 c -0.217,0 -0.415,-0.089 -0.558,-0.232 -0.143,-0.143 -0.232,-0.341 -0.232,-0.558 0,-0.202 0.076,-0.387 0.201,-0.527 0.127,-0.141 0.304,-0.237 0.502,-0.259 0.096,-0.011 0.182,-0.075 0.216,-0.172 l 0.652,-1.862 0.24,0.083 0.239,0.084 -0.524,1.499 c -0.014,0.032 -0.022,0.067 -0.022,0.105 0,0.143 0.115,0.259 0.259,0.259 l 0.842,0 z m 2.071,-2.177 -2.162,1.441 c -0.075,0.05 -0.116,0.132 -0.116,0.216 l 0,0.002 -0.271,0 0.496,-1.418 c 0.047,-0.136 -0.024,-0.283 -0.159,-0.329 l -0.483,-0.169 -0.485,-0.168 c -0.133,-0.047 -0.281,0.024 -0.328,0.158 l -0.687,1.964 c -0.26,0.064 -0.491,0.206 -0.664,0.399 -0.208,0.233 -0.335,0.538 -0.335,0.871 0,0.359 0.147,0.686 0.384,0.923 l 0.001,0.001 0.005,0.004 c 0.237,0.234 0.562,0.38 0.918,0.38 l 1.608,0 0,0.002 c 0,0.096 0.051,0.18 0.13,0.224 L -0.401,2.3 C -0.282,2.378 -0.122,2.346 -0.043,2.227 -0.014,2.183 0,2.133 0,2.084 L 0,0.326 C 0.178,0.28 0.337,0.188 0.464,0.064 l 0.01,-0.009 c 0.187,-0.187 0.303,-0.446 0.303,-0.732 0,-0.286 -0.116,-0.545 -0.303,-0.733 l -0.001,10e-4 0,-10e-4 C 0.345,-1.538 0.182,-1.633 0,-1.68 l 0,-1.759 c 0,-0.143 -0.115,-0.259 -0.259,-0.259 -0.059,0 -0.114,0.02 -0.158,0.054"
             style="fill:#ffffff;fill-opacity:1;fill-rule:nonzero;stroke:none"
             id="path22"
             inkscape:connector-curvature="0" /></g></g></g></g></svg>