<?xml version="1.0" encoding="UTF-8" standalone="no"?>
<!-- Created with Inkscape (http://www.inkscape.org/) -->

<svg
   xmlns:dc="http://purl.org/dc/elements/1.1/"
   xmlns:cc="http://creativecommons.org/ns#"
   xmlns:rdf="http://www.w3.org/1999/02/22-rdf-syntax-ns#"
   xmlns:svg="http://www.w3.org/2000/svg"
   xmlns="http://www.w3.org/2000/svg"
   xmlns:sodipodi="http://sodipodi.sourceforge.net/DTD/sodipodi-0.dtd"
   xmlns:inkscape="http://www.inkscape.org/namespaces/inkscape"
   id="svg2"
   version="1.1"
   inkscape:version="0.91 r13725"
   xml:space="preserve"
   width="7.9809623"
   height="8.4173622"
   viewBox="0 0 7.9809623 8.4173622"
   sodipodi:docname="sss-receive.svg"><metadata
     id="metadata8"><rdf:RDF><cc:Work
         rdf:about=""><dc:format>image/svg+xml</dc:format><dc:type
           rdf:resource="http://purl.org/dc/dcmitype/StillImage" /><dc:title></dc:title></cc:Work></rdf:RDF></metadata><defs
     id="defs6"><clipPath
       clipPathUnits="userSpaceOnUse"
       id="clipPath16"><path
         d="m 0,6.734 6.385,0 L 6.385,0 0,0 0,6.734 Z"
         id="path18"
         inkscape:connector-curvature="0" /></clipPath></defs><sodipodi:namedview
     pagecolor="#ffffff"
     bordercolor="#666666"
     borderopacity="1"
     objecttolerance="10"
     gridtolerance="10"
     guidetolerance="10"
     inkscape:pageopacity="0"
     inkscape:pageshadow="2"
     inkscape:window-width="1920"
     inkscape:window-height="1017"
     id="namedview4"
     showgrid="false"
     inkscape:zoom="28.037287"
     inkscape:cx="-1.2703702"
     inkscape:cy="4.2086811"
     inkscape:window-x="-8"
     inkscape:window-y="-8"
     inkscape:window-maximized="1"
     inkscape:current-layer="g10" /><g
     id="g10"
     inkscape:groupmode="layer"
     inkscape:label="Vector Smart Object"
     transform="matrix(1.25,0,0,-1.25,0,8.4173625)"><g
       id="g12"
       style="fill:#ffffff;fill-opacity:1"><g
         id="g14"
         clip-path="url(#clipPath16)"
         style="fill:#ffffff;fill-opacity:1"><g
           id="g20"
           transform="translate(2.8574,5.8662)"
           style="fill:#ffffff;fill-opacity:1"><path
             d="M 0,0 0.671,0 0.335,0.274 0,0 Z m -2.339,-2.202 0,-3.147 5.349,0 0,3.147 C 2.178,-2.882 1.344,-3.564 0.512,-4.244 0.482,-4.268 0.448,-4.28 0.413,-4.28 l -0.156,0 c -0.039,0 -0.074,0.014 -0.102,0.038 -0.831,0.68 -1.663,1.36 -2.494,2.04 m 0.362,0.416 0,-0.004 0,-0.003 0,-0.304 2.289,-1.872 0.045,0 2.29,1.872 0,0.307 0,0.004 0,1.475 -4.624,0 0,-1.475 z m 5.393,0.209 10e-4,-0.001 0.002,0 0.002,-0.002 C 3.428,-1.586 3.436,-1.591 3.442,-1.598 L 3.444,-1.6 3.455,-1.61 3.456,-1.611 3.458,-1.613 3.46,-1.616 3.463,-1.618 3.465,-1.62 l 0,-10e-4 0.005,-0.006 0.003,-0.003 0.006,-0.01 0.002,-0.003 0.002,-0.002 0,-10e-4 0.002,-0.002 0.003,-0.004 0.002,-0.003 0.002,-0.003 10e-4,-0.003 0,-10e-4 0.003,-0.003 0,-10e-4 0.003,-0.006 0.002,-0.003 0.005,-0.011 0.001,-0.003 0,0 0.002,-0.004 10e-4,-10e-4 0.001,-0.003 10e-4,-0.003 0,-0.001 10e-4,-0.003 10e-4,-0.003 0,-10e-4 0.002,-0.003 0,-10e-4 10e-4,-0.003 10e-4,-0.004 0.001,-0.003 10e-4,-0.003 0,-10e-4 10e-4,-0.004 0,-0.001 0,-0.003 10e-4,-0.003 0,-10e-4 0.001,-0.003 0,-0.003 0,-0.001 10e-4,-0.005 0,0 10e-4,-0.003 0,-0.004 0,0 10e-4,-0.004 0,-0.002 0,-0.002 0,-0.004 0,-0.001 0.001,-0.003 0,-0.003 0,-10e-4 0,-0.004 0,-0.002 0,-0.002 0,-0.005 0,-0.006 0,-3.811 c 0,-0.143 -0.115,-0.259 -0.258,-0.259 l -0.007,0 -5.861,0 c -0.142,0 -0.258,0.116 -0.258,0.259 l 0,0.006 0,3.811 c 0,0.088 0.044,0.165 0.11,0.212 l 0.435,0.356 c 0.008,0.008 0.016,0.014 0.024,0.02 l 0,1.047 c 0,0.086 0.07,0.155 0.156,0.155 l 0.004,0 1.321,0 c 0.012,0.017 0.027,0.032 0.043,0.045 l 0.93,0.761 C 0.26,0.886 0.4,0.89 0.499,0.81 L 1.434,0.045 C 1.45,0.032 1.465,0.017 1.477,0 l 1.326,0 c 0.086,0 0.155,-0.069 0.155,-0.155 l 0,-0.004 0,-1.044 0.008,-0.005 0.45,-0.369 z"
             style="fill:#ffffff;fill-opacity:1;fill-rule:nonzero;stroke:none"
             id="path22"
             inkscape:connector-curvature="0" /></g></g></g></g></svg>