<?xml version="1.0" encoding="UTF-8" standalone="no"?>
<!-- Created with Inkscape (http://www.inkscape.org/) -->

<svg
   xmlns:dc="http://purl.org/dc/elements/1.1/"
   xmlns:cc="http://creativecommons.org/ns#"
   xmlns:rdf="http://www.w3.org/1999/02/22-rdf-syntax-ns#"
   xmlns:svg="http://www.w3.org/2000/svg"
   xmlns="http://www.w3.org/2000/svg"
   xmlns:sodipodi="http://sodipodi.sourceforge.net/DTD/sodipodi-0.dtd"
   xmlns:inkscape="http://www.inkscape.org/namespaces/inkscape"
   id="svg2"
   version="1.1"
   inkscape:version="0.91 r13725"
   xml:space="preserve"
   width="8.4179621"
   height="6.5625"
   viewBox="0 0 8.4179621 6.5625"
   sodipodi:docname="sss-register.svg"><metadata
     id="metadata8"><rdf:RDF><cc:Work
         rdf:about=""><dc:format>image/svg+xml</dc:format><dc:type
           rdf:resource="http://purl.org/dc/dcmitype/StillImage" /><dc:title></dc:title></cc:Work></rdf:RDF></metadata><defs
     id="defs6"><clipPath
       clipPathUnits="userSpaceOnUse"
       id="clipPath16"><path
         d="m 0,5.25 6.734,0 L 6.734,0 0,0 0,5.25 Z"
         id="path18"
         inkscape:connector-curvature="0" /></clipPath></defs><sodipodi:namedview
     pagecolor="#ffffff"
     bordercolor="#666666"
     borderopacity="1"
     objecttolerance="10"
     gridtolerance="10"
     guidetolerance="10"
     inkscape:pageopacity="0"
     inkscape:pageshadow="2"
     inkscape:window-width="1920"
     inkscape:window-height="1017"
     id="namedview4"
     showgrid="false"
     inkscape:zoom="35.961905"
     inkscape:cx="4.208981"
     inkscape:cy="-0.11504952"
     inkscape:window-x="-8"
     inkscape:window-y="-8"
     inkscape:window-maximized="1"
     inkscape:current-layer="g10" /><g
     id="g10"
     inkscape:groupmode="layer"
     inkscape:label="Vector Smart Object"
     transform="matrix(1.25,0,0,-1.25,0,6.5625)"><g
       id="g12"
       style="fill:#ffffff;fill-opacity:1"><g
         id="g14"
         clip-path="url(#clipPath16)"
         style="fill:#ffffff;fill-opacity:1"><g
           id="g20"
           transform="translate(1.2119,1.9482)"
           style="fill:#ffffff;fill-opacity:1"><path
             d="m 0,0 c 0,0.071 0.015,0.139 0.04,0.199 0.025,0.063 0.064,0.12 0.113,0.169 0.094,0.094 0.225,0.153 0.368,0.153 l 0.765,0 c 0.07,0 0.138,-0.014 0.198,-0.04 C 1.547,0.456 1.605,0.417 1.653,0.368 1.702,0.319 1.741,0.262 1.768,0.199 1.792,0.138 1.807,0.071 1.807,0 l 0,-0.072 L 0,-0.072 0,0 Z M 0.436,1.96 C 0.556,2.08 0.721,2.154 0.903,2.154 1.086,2.154 1.252,2.08 1.371,1.96 1.49,1.841 1.564,1.675 1.564,1.493 1.564,1.311 1.49,1.145 1.371,1.025 1.113,0.768 0.693,0.768 0.436,1.025 0.316,1.145 0.242,1.311 0.242,1.493 c 0,0.182 0.074,0.348 0.194,0.467 m -0.591,-2.343 2.117,0 c 0.086,0 0.155,0.07 0.155,0.156 L 2.117,0 C 2.117,0.111 2.095,0.219 2.054,0.317 2.012,0.419 1.949,0.512 1.873,0.587 1.797,0.664 1.705,0.726 1.604,0.768 L 1.566,0.782 1.591,0.806 C 1.767,0.981 1.875,1.225 1.875,1.493 1.875,1.761 1.767,2.004 1.591,2.18 1.415,2.356 1.172,2.465 0.903,2.465 0.636,2.465 0.393,2.356 0.216,2.18 0.04,2.004 -0.068,1.761 -0.068,1.493 -0.068,1.225 0.04,0.981 0.216,0.806 L 0.24,0.783 C 0.124,0.74 0.02,0.673 -0.066,0.587 -0.143,0.512 -0.204,0.419 -0.247,0.317 -0.288,0.22 -0.311,0.111 -0.311,0 l 0,-0.227 c 0,-0.086 0.07,-0.156 0.156,-0.156 m 5.16,-1.048 -0.514,0 0,0.416 c 0,0.143 -0.116,0.259 -0.259,0.259 l -0.944,0 c -0.143,0 -0.26,-0.116 -0.26,-0.259 l 0,-0.416 -1.747,0 0,0.416 c 0,0.143 -0.115,0.259 -0.259,0.259 l -0.944,0 c -0.142,0 -0.259,-0.116 -0.259,-0.259 l 0,-0.416 -0.513,0 0,4.215 5.699,0 0,-4.215 z m 0.259,4.733 -6.217,0 c -0.143,0 -0.259,-0.116 -0.259,-0.259 l 0,-4.732 c 0,-0.144 0.116,-0.259 0.259,-0.259 l 1.031,0 c 0.144,0 0.259,0.115 0.259,0.259 l 0,0.415 0.427,0 0,-0.415 c 0,-0.144 0.116,-0.259 0.258,-0.259 l 2.266,0 c 0.143,0 0.259,0.115 0.259,0.259 l 0,0.415 0.427,0 0,-0.415 c 0,-0.144 0.116,-0.259 0.258,-0.259 l 1.032,0 c 0.142,0 0.258,0.115 0.258,0.259 l 0,4.732 c 0,0.143 -0.116,0.259 -0.258,0.259 M 2.817,1.71 l 1.606,0 c 0.086,0 0.155,0.07 0.155,0.155 0,0.086 -0.069,0.156 -0.155,0.156 l -1.606,0 C 2.731,2.021 2.662,1.951 2.662,1.865 2.662,1.78 2.731,1.71 2.817,1.71 m 0,-1.368 1.606,0 c 0.086,0 0.155,0.07 0.155,0.156 0,0.085 -0.069,0.155 -0.155,0.155 l -1.606,0 c -0.086,0 -0.155,-0.07 -0.155,-0.155 0,-0.086 0.069,-0.156 0.155,-0.156 m 0,0.684 1.606,0 c 0.086,0 0.155,0.07 0.155,0.156 0,0.085 -0.069,0.155 -0.155,0.155 l -1.606,0 c -0.086,0 -0.155,-0.07 -0.155,-0.155 0,-0.086 0.069,-0.156 0.155,-0.156"
             style="fill:#ffffff;fill-opacity:1;fill-rule:nonzero;stroke:none"
             id="path22"
             inkscape:connector-curvature="0" /></g></g></g></g></svg>