<svg xmlns="http://www.w3.org/2000/svg" width="57.469" height="55.969" viewBox="0 0 57.469 55.969">
  <metadata><?xpacket begin="﻿" id="W5M0MpCehiHzreSzNTczkc9d"?>
<x:xmpmeta xmlns:x="adobe:ns:meta/" x:xmptk="Adobe XMP Core 5.6-c142 79.160924, 2017/07/13-01:06:39        ">
   <rdf:RDF xmlns:rdf="http://www.w3.org/1999/02/22-rdf-syntax-ns#">
      <rdf:Description rdf:about=""/>
   </rdf:RDF>
</x:xmpmeta>
                                                                                                    
                                                                                                    
                                                                                                    
                                                                                                    
                                                                                                    
                                                                                                    
                                                                                                    
                                                                                                    
                                                                                                    
                                                                                                    
                                                                                                    
                                                                                                    
                                                                                                    
                                                                                                    
                                                                                                    
                                                                                                    
                                                                                                    
                                                                                                    
                                                                                                    
                                                                                                    
                           
<?xpacket end="w"?></metadata>
<defs>
    <style>
      .cls-1 {
        fill: #fff;
        fill-rule: evenodd;
      }
    </style>
  </defs>
  <path id="link" class="cls-1" d="M57.261,2.374A4.966,4.966,0,0,0,53.275.451,6.832,6.832,0,0,0,50.1,1.3L4.264,25.318C1.007,27.028.779,29.6,0.834,30.629S1.384,34.2,4.8,35.552l5.857,2.316a9.989,9.989,0,0,0,3.691.665c0.211,0,.415-0.027.624-0.038-0.08.1-.177,0.181-0.251,0.289-1.091,1.632-1.146,3.844-.158,6.226a1.014,1.014,0,0,0,.046.109c1.732,3.836,3.659,8.165,3.891,8.767a3.943,3.943,0,0,0,3.641,2.527c2.471,0,3.207-1.189,7.252-7.771a6.669,6.669,0,0,0,1.136-3.032c0.472,0.192.916,0.368,1.3,0.522l6.489,2.642c1.3,0.531,2.44,1,3.04,1.247a4.041,4.041,0,0,0,.588.295,3.894,3.894,0,0,0,1.435.274c2.952,0,3.66-2.554,4.039-3.925,0.187-.678.447-1.615,0.725-2.649l9.9-36.342A5.882,5.882,0,0,0,57.261,2.374Zm-31.134,44.2s-3.672,5.973-3.984,5.973a0.017,0.017,0,0,1-.017-0.012c-0.36-.968-3.989-9-3.989-9-0.668-1.611-.548-2.99.6-2.99a2.441,2.441,0,0,1,.908.212l2.817,1.463a7.679,7.679,0,0,0,1.549.821l0.143,0.055,0.265,0.135C26.6,44.378,27.291,44.795,26.128,46.574ZM54.309,6.656L44.415,43c-0.558,2.049-1.024,3.722-1.034,3.722a0.107,0.107,0,0,1-.019-0.051c0-.013-1.614-0.674-3.586-1.478l-6.493-2.642c-1.972-.8-5.206-2.088-7.189-2.853l-0.329-.13-1.214-.63a2.362,2.362,0,0,1-.1-3.724l20.091-21.5c0.807-.86,1.11-1.3.936-1.3a4.61,4.61,0,0,0-1.332.872L18.73,33.32a7.407,7.407,0,0,1-4.378,1.348,6.244,6.244,0,0,1-2.269-.394L6.23,31.96c-1.978-.783-2.054-2.228-0.171-3.218L51.9,4.722a3.072,3.072,0,0,1,1.376-.405C54.261,4.316,54.71,5.179,54.309,6.656Z" transform="translate(-0.844 -0.438)"/>
</svg>
