<?xml version="1.0" encoding="UTF-8" standalone="no"?>
<!-- Created with Inkscape (http://www.inkscape.org/) -->

<svg
   xmlns:dc="http://purl.org/dc/elements/1.1/"
   xmlns:cc="http://creativecommons.org/ns#"
   xmlns:rdf="http://www.w3.org/1999/02/22-rdf-syntax-ns#"
   xmlns:svg="http://www.w3.org/2000/svg"
   xmlns="http://www.w3.org/2000/svg"
   xmlns:sodipodi="http://sodipodi.sourceforge.net/DTD/sodipodi-0.dtd"
   xmlns:inkscape="http://www.inkscape.org/namespaces/inkscape"
   id="svg2"
   version="1.1"
   inkscape:version="0.91 r13725"
   xml:space="preserve"
   width="8.4179621"
   height="8.4185753"
   viewBox="0 0 8.4179621 8.4185753"
   sodipodi:docname="sss-play.svg"><metadata
     id="metadata8"><rdf:RDF><cc:Work
         rdf:about=""><dc:format>image/svg+xml</dc:format><dc:type
           rdf:resource="http://purl.org/dc/dcmitype/StillImage" /><dc:title></dc:title></cc:Work></rdf:RDF></metadata><defs
     id="defs6"><clipPath
       clipPathUnits="userSpaceOnUse"
       id="clipPath16"><path
         d="m 0,6.735 6.734,0 L 6.734,0 0,0 0,6.735 Z"
         id="path18"
         inkscape:connector-curvature="0" /></clipPath></defs><sodipodi:namedview
     pagecolor="#ffffff"
     bordercolor="#666666"
     borderopacity="1"
     objecttolerance="10"
     gridtolerance="10"
     guidetolerance="10"
     inkscape:pageopacity="0"
     inkscape:pageshadow="2"
     inkscape:window-width="1920"
     inkscape:window-height="1017"
     id="namedview4"
     showgrid="false"
     inkscape:zoom="28.033247"
     inkscape:cx="4.208981"
     inkscape:cy="4.2092876"
     inkscape:window-x="-8"
     inkscape:window-y="-8"
     inkscape:window-maximized="1"
     inkscape:current-layer="g10" /><g
     id="g10"
     inkscape:groupmode="layer"
     inkscape:label="Vector Smart Object1"
     transform="matrix(1.25,0,0,-1.25,0,8.418575)"><g
       id="g12"
       style="fill:#ffffff;fill-opacity:1"><g
         id="g14"
         clip-path="url(#clipPath16)"
         style="fill:#ffffff;fill-opacity:1"><g
           id="g20"
           transform="translate(5.75,3.5229)"
           style="fill:#ffffff;fill-opacity:1"><path
             d="m 0,0 c -0.085,0 -0.155,-0.07 -0.155,-0.155 0,-0.616 -0.25,-1.173 -0.653,-1.575 l -0.007,-0.008 c -0.402,-0.399 -0.956,-0.645 -1.568,-0.645 -0.086,0 -0.155,-0.07 -0.155,-0.155 0,-0.086 0.069,-0.156 0.155,-0.156 0.696,0 1.326,0.281 1.785,0.735 l 0.01,0.009 c 0.459,0.459 0.744,1.094 0.744,1.795 C 0.156,-0.07 0.086,0 0,0 m -3.896,1.359 c 0.075,0.074 0.287,0.206 0.395,0.098 l 0.004,-0.005 c 0.03,-0.035 0.04,-0.088 0.03,-0.148 -0.026,-0.174 -0.201,-0.348 -0.375,-0.375 -0.062,-0.01 -0.118,0 -0.152,0.034 -0.109,0.108 0.017,0.315 0.098,0.396 M -3.068,1.012 C -2.885,1.041 -2.774,0.931 -2.803,0.747 -2.839,0.523 -3.06,0.301 -3.284,0.266 -3.472,0.236 -3.579,0.345 -3.55,0.531 c 0.035,0.226 0.255,0.446 0.482,0.481 M -3.849,0.616 -3.855,0.579 c -0.064,-0.394 0.224,-0.683 0.619,-0.62 0.358,0.057 0.682,0.382 0.739,0.74 0.062,0.392 -0.228,0.681 -0.62,0.619 L -3.154,1.311 c 0.008,0.134 -0.03,0.26 -0.117,0.354 l -0.01,0.011 C -3.522,1.917 -3.908,1.786 -4.116,1.578 -4.325,1.369 -4.453,0.983 -4.214,0.744 -4.118,0.648 -3.988,0.607 -3.849,0.616 m 3.481,-2.786 c -0.516,-0.516 -1.229,-0.835 -2.015,-0.835 -0.786,0 -1.499,0.319 -2.014,0.835 -0.516,0.516 -0.835,1.228 -0.835,2.015 0,0.258 0.035,0.508 0.098,0.745 -0.009,-0.383 0.116,-0.744 0.382,-1.01 0.301,-0.301 0.723,-0.42 1.16,-0.371 0.427,0.048 0.87,0.258 1.229,0.616 0.358,0.359 0.568,0.802 0.616,1.229 0.05,0.437 -0.07,0.859 -0.37,1.16 l -10e-4,0 c -0.267,0.266 -0.627,0.39 -1.009,0.382 0.237,0.064 0.486,0.098 0.744,0.098 0.786,0 1.499,-0.319 2.015,-0.835 0.515,-0.515 0.835,-1.228 0.835,-2.014 0,-0.787 -0.32,-1.499 -0.835,-2.015 m -3.919,3.92 c 0.308,0.307 0.683,0.486 1.042,0.527 0.348,0.039 0.678,-0.052 0.908,-0.282 0.231,-0.231 0.32,-0.561 0.281,-0.908 -0.087,-0.777 -0.792,-1.483 -1.569,-1.569 -0.347,-0.039 -0.677,0.051 -0.907,0.282 -0.231,0.23 -0.322,0.56 -0.282,0.907 0.04,0.358 0.219,0.735 0.527,1.043 m 4.285,0.476 c -0.609,0.609 -1.451,0.986 -2.381,0.986 -0.93,0 -1.771,-0.377 -2.381,-0.986 -0.609,-0.61 -0.986,-1.452 -0.986,-2.381 0,-0.93 0.377,-1.772 0.986,-2.381 0.61,-0.61 1.451,-0.987 2.381,-0.987 0.93,0 1.772,0.377 2.381,0.987 0.609,0.609 0.986,1.451 0.986,2.381 0,0.929 -0.377,1.771 -0.986,2.381"
             style="fill:#ffffff;fill-opacity:1;fill-rule:nonzero;stroke:none"
             id="path22"
             inkscape:connector-curvature="0" /></g></g></g></g></svg>