<?xml version="1.0" encoding="UTF-8" standalone="no"?>
<!-- Created with Inkscape (http://www.inkscape.org/) -->

<svg
   xmlns:dc="http://purl.org/dc/elements/1.1/"
   xmlns:cc="http://creativecommons.org/ns#"
   xmlns:rdf="http://www.w3.org/1999/02/22-rdf-syntax-ns#"
   xmlns:svg="http://www.w3.org/2000/svg"
   xmlns="http://www.w3.org/2000/svg"
   xmlns:sodipodi="http://sodipodi.sourceforge.net/DTD/sodipodi-0.dtd"
   xmlns:inkscape="http://www.inkscape.org/namespaces/inkscape"
   id="svg2"
   version="1.1"
   inkscape:version="0.91 r13725"
   xml:space="preserve"
   width="8.4179621"
   height="8.5217247"
   viewBox="0 0 8.4179621 8.5217247"
   sodipodi:docname="sss-collect.svg"><metadata
     id="metadata8"><rdf:RDF><cc:Work
         rdf:about=""><dc:format>image/svg+xml</dc:format><dc:type
           rdf:resource="http://purl.org/dc/dcmitype/StillImage" /><dc:title></dc:title></cc:Work></rdf:RDF></metadata><defs
     id="defs6"><clipPath
       clipPathUnits="userSpaceOnUse"
       id="clipPath16"><path
         d="m 0,6.817 6.734,0 L 6.734,0 0,0 0,6.817 Z"
         id="path18"
         inkscape:connector-curvature="0" /></clipPath></defs><sodipodi:namedview
     pagecolor="#ffffff"
     bordercolor="#666666"
     borderopacity="1"
     objecttolerance="10"
     gridtolerance="10"
     guidetolerance="10"
     inkscape:pageopacity="0"
     inkscape:pageshadow="2"
     inkscape:window-width="1920"
     inkscape:window-height="1017"
     id="namedview4"
     showgrid="false"
     inkscape:zoom="27.693924"
     inkscape:cx="4.208981"
     inkscape:cy="4.2608624"
     inkscape:window-x="-8"
     inkscape:window-y="-8"
     inkscape:window-maximized="1"
     inkscape:current-layer="g10" /><g
     id="g10"
     inkscape:groupmode="layer"
     inkscape:label="Vector Smart Object2"
     transform="matrix(1.25,0,0,-1.25,0,8.521725)"><g
       id="g12"
       style="fill:#ffffff;fill-opacity:1"><g
         id="g14"
         clip-path="url(#clipPath16)"
         style="fill:#ffffff;fill-opacity:1"><g
           id="g20"
           transform="translate(4.9746,3.0078)"
           style="fill:#ffffff;fill-opacity:1"><path
             d="M 0,0 0.007,0.007 C 0.068,0.065 0.152,0.102 0.245,0.102 0.341,0.102 0.427,0.062 0.489,0 L 0.496,-0.006 C 0.555,-0.068 0.591,-0.152 0.591,-0.245 0.591,-0.34 0.552,-0.427 0.489,-0.489 0.427,-0.551 0.341,-0.59 0.245,-0.59 0.149,-0.59 0.062,-0.552 0,-0.49 l 0,0.001 c -0.062,0.062 -0.102,0.149 -0.102,0.244 0,0.096 0.04,0.183 0.102,0.245 m -0.219,-0.708 0,-0.001 c 0.119,-0.119 0.283,-0.192 0.464,-0.192 0.181,0 0.346,0.073 0.464,0.192 0.119,0.119 0.192,0.283 0.192,0.464 0,0.177 -0.07,0.337 -0.183,0.455 L 0.709,0.22 C 0.591,0.339 0.426,0.412 0.245,0.412 0.069,0.412 -0.092,0.343 -0.21,0.229 L -0.22,0.22 c -0.118,-0.119 -0.192,-0.283 -0.192,-0.465 0,-0.181 0.074,-0.345 0.192,-0.464 l 0.001,0.001 z m 1.461,1.622 -1.954,0 c -0.113,0 -0.217,-0.047 -0.291,-0.122 l -0.001,0 C -1.078,0.717 -1.125,0.613 -1.125,0.5 l 0,-1.489 c 0,-0.113 0.047,-0.217 0.121,-0.292 l 0.001,0 c 0.074,-0.075 0.178,-0.121 0.291,-0.121 l 1.954,0 0,-0.683 c 0,-0.111 -0.046,-0.212 -0.12,-0.286 C 1.049,-2.444 0.948,-2.49 0.837,-2.49 l -4.889,0 c -0.111,0 -0.213,0.046 -0.286,0.118 -0.073,0.074 -0.119,0.175 -0.119,0.287 l 0,3.682 c 0,0.111 0.046,0.213 0.118,0.285 l 0.001,0.001 c 0.073,0.073 0.175,0.118 0.286,0.118 l 4.889,0 C 0.949,2.001 1.05,1.955 1.123,1.883 1.196,1.81 1.242,1.708 1.242,1.597 l 0,-0.683 z m 0,-2.006 -1.954,0 c -0.028,0 -0.055,0.012 -0.072,0.03 l -0.001,0 c -0.018,0.019 -0.029,0.044 -0.029,0.073 l 0,1.489 c 0,0.028 0.011,0.055 0.029,0.072 l 0.001,0.001 c 0.017,0.018 0.044,0.03 0.072,0.03 l 1.954,0 0,-1.695 z M -3.069,3.443 C -2.536,3.136 -2.002,2.827 -1.468,2.52 l -2.135,0 0.534,0.923 z m 2.825,0.005 0.536,-0.928 -1.142,0 -0.551,0.317 1.157,0.611 z M 1.492,2.244 1.489,2.248 1.488,2.249 C 1.321,2.415 1.091,2.52 0.837,2.52 l -0.218,0 C 0.621,2.549 0.614,2.58 0.599,2.608 l -0.65,1.124 c -0.042,0.073 -0.133,0.098 -0.206,0.06 l -0.001,0 -1.46,-0.771 -1.322,0.763 -0.009,0.005 C -3.122,3.832 -3.218,3.807 -3.26,3.732 L -3.909,2.608 C -3.926,2.58 -3.933,2.549 -3.931,2.52 l -0.121,0 c -0.253,0 -0.483,-0.104 -0.651,-0.271 L -4.704,2.248 C -4.871,2.08 -4.975,1.85 -4.975,1.597 l 0,-3.682 c 0,-0.252 0.103,-0.481 0.267,-0.647 l 0.005,-0.005 c 0.167,-0.167 0.398,-0.271 0.651,-0.271 l 4.889,0 c 0.254,0 0.485,0.104 0.651,0.271 0.168,0.167 0.272,0.398 0.272,0.652 l 0,3.682 c 0,0.251 -0.103,0.48 -0.268,0.647"
             style="fill:#ffffff;fill-opacity:1;fill-rule:nonzero;stroke:none"
             id="path22"
             inkscape:connector-curvature="0" /></g></g></g></g></svg>